<?xml version="1.0" standalone="no"?>
<!DOCTYPE svg PUBLIC "-//W3C//DTD SVG 20010904//EN"
 "http://www.w3.org/TR/2001/REC-SVG-20010904/DTD/svg10.dtd">
<svg version="1.0" xmlns="http://www.w3.org/2000/svg"
 width="1300.000000pt" height="1300.000000pt" viewBox="0 0 1300.000000 1300.000000"
 preserveAspectRatio="xMidYMid meet">

<g transform="translate(0.000000,1300.000000) scale(0.100000,-0.100000)"
fill="#00c7ff" stroke="none">
<path d="M4588 9310 c-242 -18 -324 -72 -368 -245 -19 -71 -22 -127 -30 -510
-4 -236 -9 -747 -9 -1135 -2 -691 -9 -1124 -32 -1925 -16 -566 1 -1301 33
-1370 6 -13 19 -27 29 -30 11 -4 22 -18 25 -33 23 -111 61 -186 121 -244 76
-72 169 -99 221 -62 23 16 30 62 12 80 -10 10 9 33 139 169 207 218 369 403
466 533 33 45 62 81 65 82 3 0 6 -42 8 -93 l3 -92 -36 -40 c-19 -22 -73 -96
-119 -165 -46 -69 -123 -168 -171 -220 -49 -52 -99 -111 -112 -131 -23 -35
-26 -36 -101 -43 -121 -10 -124 -11 -120 -60 l3 -41 90 -12 c135 -18 475 -27
689 -18 l188 7 -63 67 -64 66 70 -67 70 -66 260 13 c342 18 495 18 820 -1 149
-8 378 -21 510 -29 l240 -13 45 42 45 41 -38 -41 -39 -41 34 -6 c66 -11 323 0
403 17 96 21 179 57 194 84 6 12 25 21 50 25 97 13 224 104 258 185 8 20 23
55 33 78 15 32 40 195 40 259 0 10 48 14 211 17 210 3 211 3 231 28 20 25 20
34 14 1945 -5 1784 -13 2354 -31 2397 -11 28 -69 38 -266 45 l-186 6 -12 91
c-34 236 -79 340 -179 403 l-57 37 -200 8 c-234 9 -687 9 -681 -1 2 -3 -350
-5 -783 -3 l-786 2 -68 -68 -68 -69 1174 -7 c645 -4 1226 -4 1289 -1 109 7
119 6 151 -14 54 -33 103 -93 126 -155 29 -79 45 -258 37 -429 -6 -115 -18
-1816 -27 -3710 -1 -328 6 -551 20 -617 11 -50 -21 -138 -71 -195 -46 -53
-145 -114 -238 -148 -51 -18 -74 -22 -110 -16 -74 12 -254 10 -450 -6 -169
-14 -214 -14 -525 2 -375 19 -933 23 -1339 9 -250 -8 -258 -8 -253 10 4 11 11
224 17 474 8 335 8 937 0 2280 -7 1004 -13 1854 -15 1890 -1 36 -6 178 -9 315
-4 138 -10 265 -13 283 l-5 32 114 0 114 0 69 70 70 71 -385 -7 c-267 -5 -397
-3 -425 4 -60 17 -186 21 -317 12z m2757 -60 c10 -11 16 -20 13 -20 -3 0 -13
9 -23 20 -10 11 -16 20 -13 20 3 0 13 -9 23 -20z m61 -62 l29 -33 -32 29 c-31
28 -38 36 -30 36 2 0 16 -15 33 -32z m-2446 -24 c0 -4 -15 -27 -33 -53 -76
-105 -260 -358 -277 -381 -81 -108 -193 -284 -279 -435 -56 -99 -107 -184
-112 -190 -5 -5 -9 35 -9 106 l0 115 91 159 c98 173 130 224 254 415 45 69 97
151 116 182 l34 57 55 1 c30 1 73 7 95 15 46 15 65 18 65 9z m217 -7 c3 -5 -2
-16 -10 -25 -7 -9 -70 -100 -139 -202 -159 -236 -244 -360 -290 -424 -20 -28
-98 -143 -174 -256 -75 -113 -159 -239 -187 -280 -28 -41 -64 -96 -81 -122
-17 -26 -34 -48 -38 -48 -5 0 -8 44 -8 99 l0 98 83 159 c46 87 124 219 173
293 102 153 92 138 244 348 100 137 165 233 234 346 17 28 18 28 102 25 47 -1
88 -6 91 -11z m126 -89 c-5 -89 -7 -95 -42 -138 -46 -55 -85 -119 -78 -126 3
-3 -4 -15 -15 -27 -11 -12 -45 -65 -76 -117 -30 -52 -95 -152 -144 -222 -53
-75 -86 -132 -82 -139 4 -7 3 -9 -4 -5 -6 4 -22 -13 -38 -41 -66 -113 -448
-672 -518 -757 l-41 -50 -5 115 -6 114 63 91 c34 50 105 167 156 260 92 166
121 214 172 284 14 19 78 115 143 212 64 98 186 281 271 408 l155 230 47 0 46
0 -4 -92z m-594 66 c3 -2 -54 -91 -126 -197 -127 -188 -160 -241 -274 -435
l-54 -92 -3 131 c-2 114 0 135 16 162 11 18 50 91 87 162 94 181 143 255 180
271 27 11 161 9 174 -2z m-229 0 c0 -3 -35 -58 -77 -122 -42 -64 -96 -153
-120 -197 l-43 -80 0 106 c0 206 58 296 193 298 26 1 47 -2 47 -5z m816 -246
c-2 -18 -4 -94 -5 -169 l-1 -137 -92 -124 c-131 -175 -186 -250 -259 -353 -35
-49 -90 -126 -124 -170 -33 -44 -68 -91 -78 -105 -9 -14 -41 -55 -70 -92 -192
-245 -314 -414 -381 -528 l-26 -45 0 100 0 101 51 59 c46 54 170 234 258 375
19 30 96 148 170 262 205 313 304 470 389 613 85 143 153 245 164 245 4 0 6
-15 4 -32z m3224 -285 c-1 -5 -21 -30 -45 -58 l-45 -50 0 58 0 57 45 0 c25 0
45 -3 45 -7z m170 -12 c24 -7 22 -10 -55 -92 -44 -47 -105 -115 -135 -151 -30
-37 -57 -67 -60 -67 -3 -1 -7 31 -8 69 l-3 70 47 58 c97 116 104 122 148 121
23 -1 52 -4 66 -8z m119 -7 c25 -5 31 -11 31 -33 0 -14 -10 -38 -23 -52 -12
-15 -53 -71 -92 -124 -82 -114 -162 -210 -234 -280 l-51 -49 0 81 c0 92 -16
64 155 268 42 50 94 114 116 143 41 54 46 56 98 46z m-3529 -242 l-5 -187
-128 -160 c-195 -244 -205 -258 -348 -447 -74 -97 -195 -265 -269 -373 -73
-109 -163 -234 -200 -279 l-65 -81 -3 127 c-3 126 -2 128 29 190 44 87 130
214 278 408 198 260 230 304 358 485 65 94 150 214 189 268 38 55 78 111 89
127 11 15 33 46 49 69 16 22 29 41 30 41 0 0 -1 -84 -4 -188z m3550 7 c-6
-134 6 -113 -175 -309 -54 -58 -123 -136 -154 -173 l-56 -68 -3 82 -3 82 66
68 c37 38 64 73 60 79 -4 6 -2 9 3 8 11 -3 109 124 201 260 34 52 63 92 65 90
1 -1 -1 -55 -4 -119z m-3 -293 l-5 -115 -124 -136 c-153 -169 -218 -243 -240
-275 -17 -24 -17 -23 -17 66 l-1 91 116 139 c64 76 150 185 192 242 42 56 79
102 81 102 2 0 1 -52 -2 -114z m-3550 -98 l-6 -161 -34 -36 c-18 -20 -60 -72
-92 -116 -32 -44 -122 -159 -199 -255 -196 -245 -205 -257 -251 -319 -23 -31
-81 -114 -130 -186 -87 -125 -145 -198 -252 -315 l-51 -55 -1 107 -2 107 39
43 c58 65 144 184 281 388 121 181 176 258 291 410 173 227 371 496 388 527 7
13 15 23 19 23 3 0 3 -73 0 -162z m3438 -393 c-58 -69 -124 -139 -145 -156
-21 -17 -46 -47 -55 -65 -9 -19 -22 -34 -30 -34 -7 0 -20 -3 -29 -6 -23 -9
-22 97 1 134 32 50 108 147 167 212 32 36 89 102 125 148 l66 83 3 -96 3 -96
-106 -124z m-3592 -239 c-272 -278 -557 -633 -767 -956 -38 -58 -73 -109 -77
-114 -5 -6 -9 32 -9 86 l0 95 91 104 c122 139 160 190 287 377 310 460 395
576 536 741 l81 94 3 -138 3 -137 -148 -152z m3650 53 c-47 -47 -50 -48 -125
-54 -43 -3 -78 -2 -78 3 0 4 21 28 46 52 25 25 80 89 122 144 l77 99 3 -99 3
-98 -48 -47z m-3578 -284 c-42 -44 -149 -177 -238 -295 -89 -118 -185 -242
-212 -275 -284 -337 -377 -448 -414 -497 -24 -32 -47 -58 -51 -58 -4 0 -8 42
-9 93 l-2 92 89 135 c203 310 543 746 793 1015 25 28 62 68 80 89 l34 39 3
-129 3 -129 -76 -80z m3625 245 c0 -5 -5 -10 -11 -10 -5 0 -7 5 -4 10 3 6 8
10 11 10 2 0 4 -4 4 -10z m-156 -185 l151 -7 -1 -32 c-1 -17 -2 -274 -3 -572
l-1 -540 -117 18 c-65 9 -141 20 -169 24 -29 4 -58 10 -65 15 -12 7 -15 109
-17 563 l-3 554 36 -8 c21 -5 105 -12 189 -15z m-3477 -389 c-47 -46 -138
-156 -203 -243 -159 -213 -185 -243 -363 -428 -161 -167 -231 -250 -297 -349
l-39 -59 -3 93 -3 93 70 91 c63 83 141 179 239 295 20 24 48 57 62 74 14 17
48 58 75 92 62 74 105 130 280 365 76 102 165 217 199 255 l61 71 3 -133 3
-132 -84 -85z m83 -116 l0 -141 -67 -72 c-36 -40 -92 -99 -123 -132 -409 -436
-577 -632 -715 -834 l-70 -103 -5 104 c-6 121 -3 129 83 243 85 113 165 206
344 400 119 130 181 206 321 395 104 139 218 280 228 280 2 0 4 -63 4 -140z
m0 -289 l0 -110 -172 -203 c-208 -247 -277 -325 -433 -493 -127 -136 -294
-327 -335 -382 -13 -18 -27 -33 -31 -33 -5 0 -7 35 -6 78 2 76 3 78 61 162
155 224 255 346 641 780 110 124 216 244 235 267 19 24 36 43 38 43 1 0 2 -49
2 -109z m-72 -484 c-40 -39 -106 -117 -145 -172 -76 -105 -79 -109 -268 -342
-278 -344 -472 -573 -484 -573 -5 0 -5 46 -1 247 0 15 150 199 277 339 91 101
165 188 303 355 30 36 129 155 220 265 l165 198 3 -122 3 -122 -73 -73z m66
-99 c-4 -251 5 -214 -72 -293 -226 -236 -511 -550 -597 -660 -48 -60 -125
-151 -222 -262 -40 -46 -73 -89 -73 -97 0 -8 -3 -17 -7 -19 -5 -3 -7 56 -5
131 l4 136 73 78 c41 44 103 115 137 159 35 44 110 137 168 206 58 69 134 163
170 208 36 45 129 160 208 256 79 96 159 193 178 217 19 23 36 42 37 42 1 0 2
-46 1 -102z m3294 24 c-1 -4 -24 -27 -50 -51 l-48 -44 0 52 0 51 51 0 c28 0
49 -4 47 -8z m90 -125 c-67 -73 -137 -149 -155 -170 -18 -20 -34 -37 -35 -37
-2 0 -1 39 1 87 3 88 3 88 41 121 21 18 55 55 75 82 l37 50 80 0 80 0 -124
-133z m130 -101 c-35 -44 -80 -94 -230 -250 l-98 -101 0 78 0 78 103 127 c56
70 136 162 177 205 l75 79 3 -88 c3 -85 2 -88 -30 -128z m-15 -230 c-65 -70
-231 -260 -268 -307 -16 -21 -33 -38 -37 -39 -5 0 -8 33 -8 74 0 55 4 77 16
87 15 12 251 288 309 362 l30 37 3 -81 3 -81 -48 -52z m-3503 20 l0 -134 -67
-73 c-38 -41 -201 -206 -363 -369 -274 -274 -416 -428 -514 -557 -22 -29 -41
-52 -42 -50 -4 5 9 187 14 183 3 -3 18 16 35 42 16 26 62 81 102 124 41 42
119 136 173 210 111 147 191 242 386 457 72 79 162 180 200 223 38 43 71 78
73 78 1 0 3 -60 3 -134z m3492 -289 c-33 -40 -111 -128 -173 -196 -125 -138
-130 -139 -119 -26 5 52 11 61 175 267 l170 213 3 -93 3 -93 -59 -72z m-3594
-235 c-57 -54 -170 -162 -253 -239 -82 -77 -186 -178 -230 -224 -138 -145
-305 -364 -305 -403 0 -9 -3 -16 -6 -16 -12 0 -46 46 -65 88 l-21 44 74 96
c106 140 201 245 483 533 138 140 289 300 336 354 l84 99 3 -116 3 -117 -103
-99z m3638 36 c-18 -25 -78 -95 -158 -185 -67 -75 -148 -181 -148 -194 0 -5
-7 -9 -15 -9 -12 0 -15 16 -15 80 0 79 0 80 44 137 24 32 83 103 131 158 48
55 106 128 128 163 l42 63 3 -96 c2 -72 -1 -101 -12 -117z m-3573 -248 c-72
-88 -236 -267 -495 -541 -81 -85 -157 -167 -168 -182 -14 -18 -31 -27 -48 -27
-30 0 -106 32 -116 49 -16 26 237 323 529 621 117 118 239 243 271 278 l59 63
6 -103 7 -102 -45 -56z m3561 -39 c-15 -20 -41 -51 -57 -68 -29 -31 -36 -33
-94 -33 -35 0 -63 3 -63 6 0 3 28 42 63 87 35 45 88 117 118 161 l54 78 3 -97
c3 -92 1 -99 -24 -134z m26 -71 c0 -23 -4 -30 -20 -30 -24 0 -25 4 -4 35 21
32 24 31 24 -5z m-3544 -405 c-3 -11 -41 -60 -85 -108 -44 -48 -85 -101 -92
-116 -12 -28 -17 -29 -102 -36 -49 -4 -91 -4 -94 -1 -3 2 28 42 67 88 40 46
97 121 127 168 74 114 102 156 143 215 l35 49 3 -119 c1 -66 0 -129 -2 -140z
m17 -162 l4 -93 -78 0 c-44 0 -79 3 -79 8 0 4 32 45 70 92 39 47 70 90 71 95
2 29 8 -20 12 -102z"/>
<path d="M6608 7665 c-195 -49 -361 -211 -424 -414 -52 -165 -14 -387 85 -495
40 -45 41 -47 7 -16 l-38 35 15 -31 c27 -52 97 -135 134 -156 l34 -21 -56 -29
c-87 -44 -128 -72 -191 -131 -85 -79 -120 -143 -149 -273 -32 -140 -32 -144 3
-111 17 16 37 54 50 95 40 125 99 190 257 287 97 59 195 132 202 151 3 7 13
16 24 19 10 4 24 16 30 28 10 18 8 25 -22 49 -18 15 -37 28 -42 28 -14 0 -148
69 -174 90 -37 29 -87 100 -107 150 -37 95 -31 240 15 331 26 52 111 142 169
179 28 18 92 48 143 67 153 59 293 57 431 -5 113 -50 177 -102 229 -185 29
-48 30 -48 49 -30 19 19 19 20 -2 74 -57 142 -180 258 -329 306 -67 21 -271
26 -343 8z m-263 -985 c10 -11 16 -20 13 -20 -3 0 -13 9 -23 20 -10 11 -16 20
-13 20 3 0 13 -9 23 -20z m65 -65 c19 -19 32 -35 29 -35 -3 0 -20 16 -39 35
-19 19 -32 35 -29 35 3 0 20 -16 39 -35z m70 -70 c13 -14 21 -25 18 -25 -2 0
-15 11 -28 25 -13 14 -21 25 -18 25 2 0 15 -11 28 -25z"/>
<path d="M7279 7265 c-14 -14 -14 -23 -1 -83 9 -46 12 -99 8 -167 -5 -84 -10
-109 -36 -162 -32 -64 -86 -120 -167 -170 -24 -16 -46 -38 -49 -51 -14 -53 3
-71 228 -239 111 -83 168 -138 210 -203 63 -99 87 -250 68 -435 -17 -173 -17
-175 -51 -175 -16 0 -29 -3 -29 -7 0 -11 -65 -12 -470 -10 -190 1 -479 1 -642
2 l-296 0 -6 35 c-7 50 0 401 9 425 6 15 -1 11 -26 -13 l-34 -32 0 -258 c0
-182 3 -263 12 -278 11 -19 24 -22 130 -28 65 -4 309 -6 543 -4 234 1 493 2
575 2 83 1 187 -2 231 -7 72 -6 83 -5 88 10 4 11 -4 28 -26 52 l-33 36 31 -28
31 -28 6 53 c41 361 28 588 -44 730 -49 97 -175 212 -332 303 l-48 28 35 29
c46 38 100 149 121 253 21 101 24 290 6 373 -7 34 -17 62 -20 62 -4 0 -14 -7
-22 -15z m216 -1735 c10 -11 16 -20 13 -20 -3 0 -13 9 -23 20 -10 11 -16 20
-13 20 3 0 13 -9 23 -20z"/>
</g>
</svg>
