<?xml version="1.0" standalone="no"?>
<!DOCTYPE svg PUBLIC "-//W3C//DTD SVG 20010904//EN"
 "http://www.w3.org/TR/2001/REC-SVG-20010904/DTD/svg10.dtd">
<svg version="1.0" xmlns="http://www.w3.org/2000/svg"
 width="1000.000000pt" height="667.000000pt" viewBox="0 0 1000.000000 667.000000"
 preserveAspectRatio="xMidYMid meet">

<g transform="translate(0.000000,667.000000) scale(0.100000,-0.100000)"
fill="#00c7ff" stroke="none">
<path d="M5517 3756 c-95 -35 -166 -110 -302 -321 -93 -144 -194 -249 -280
-291 -52 -25 -72 -29 -145 -29 -64 0 -94 5 -119 18 -53 29 -118 103 -150 170
-117 249 -132 277 -175 319 -142 142 -353 120 -532 -57 -61 -61 -80 -89 -143
-214 -41 -81 -90 -163 -113 -187 -49 -53 -112 -79 -165 -69 -98 18 -180 90
-292 256 -131 195 -262 294 -435 329 -69 14 -135 7 -213 -22 -42 -15 -71 -36
-117 -85 -147 -156 -161 -169 -202 -181 -31 -9 -188 -12 -602 -12 -531 0 -562
-1 -571 -18 -24 -45 -28 -45 596 -46 585 -1 588 -1 628 21 41 22 87 68 159
158 54 68 90 96 150 117 67 23 130 22 207 -2 130 -40 211 -109 359 -305 104
-139 193 -229 256 -261 52 -25 155 -26 206 -1 70 35 114 93 194 256 67 135 86
165 143 222 155 155 319 178 439 61 48 -47 56 -61 175 -312 81 -170 157 -225
312 -225 80 0 97 3 155 31 120 57 199 138 349 359 151 221 206 269 306 268
114 -1 227 -97 335 -282 136 -234 192 -297 310 -342 73 -28 182 -28 271 0 148
47 267 159 394 372 44 74 95 151 114 172 90 99 210 102 268 6 11 -19 38 -79
59 -133 81 -214 158 -244 576 -226 224 10 444 23 594 36 l71 6 6 -62 c4 -35 7
-105 7 -156 0 -214 55 -236 303 -123 61 28 123 53 137 56 14 4 28 11 32 16 4
6 109 63 235 126 236 120 260 139 244 185 -5 12 -26 33 -47 48 -45 32 -315
146 -489 207 -66 23 -127 49 -137 58 -9 8 -21 12 -27 9 -5 -4 -58 8 -116 25
-115 34 -127 32 -133 -19 -2 -15 -6 -90 -8 -168 l-5 -141 -158 -11 c-252 -19
-577 -36 -696 -36 -130 0 -208 19 -260 66 -43 37 -59 66 -96 176 -47 140 -105
192 -212 192 -109 0 -205 -77 -301 -242 -129 -220 -204 -305 -323 -361 -63
-29 -76 -32 -168 -32 -86 0 -106 3 -145 24 -72 38 -139 119 -238 285 -105 176
-179 263 -256 301 -65 32 -165 41 -219 21z m3257 -149 c8 -33 27 -209 23 -213
-2 -2 -12 50 -23 116 -11 66 -16 120 -13 120 4 0 9 -10 13 -23z m114 -105 c27
-71 29 -83 20 -137 -11 -73 -18 -82 -18 -24 -1 42 -21 168 -36 217 -3 12 -4
22 -1 22 3 0 19 -35 35 -78z m163 -72 c15 -9 19 -21 18 -63 -1 -29 -5 -65 -9
-82 l-8 -30 -1 30 c-1 17 -8 58 -15 93 -7 34 -12 62 -9 62 2 0 13 -5 24 -10z
m244 -8 c0 -18 -20 -15 -23 4 -3 10 1 15 10 12 7 -3 13 -10 13 -16z m103 -45
c5 -24 -15 -21 -21 4 -3 13 -1 19 6 16 7 -2 13 -11 15 -20z m-221 -29 c-3 -8
-6 -5 -6 6 -1 11 2 17 5 13 3 -3 4 -12 1 -19z m159 -93 c-21 -16 -32 -13 -21
4 3 6 14 11 23 11 15 -1 15 -2 -2 -15z m-96 -39 c0 -8 -7 -16 -15 -20 -15 -5
-21 14 -8 27 11 12 23 8 23 -7z m-106 -43 c4 -9 1 -20 -6 -25 -21 -12 -31 -9
-24 8 3 9 6 20 6 25 0 15 17 10 24 -8z m-124 -58 c0 -14 -8 -29 -20 -35 -19
-10 -20 -9 -14 17 9 35 13 43 25 43 5 0 9 -11 9 -25z m-163 -107 c-28 -18 -35
-9 -24 29 l11 36 12 -29 c9 -22 9 -31 1 -36z"/>
<path d="M629 3560 c-81 -14 -128 -48 -164 -120 -23 -45 -24 -134 -2 -177 42
-81 147 -128 272 -121 62 3 81 8 117 33 58 40 88 102 88 177 0 160 -120 240
-311 208z m162 -99 c35 -28 20 -32 -20 -4 -19 13 -27 23 -19 23 9 0 26 -9 39
-19z m-193 -71 c-8 -24 -6 -38 10 -70 19 -39 14 -42 -20 -12 -22 19 -23 60 -2
90 21 30 25 28 12 -8z m259 -123 c-26 -39 -64 -60 -119 -63 l-53 -4 47 13 c53
15 93 39 110 67 7 10 16 16 21 13 4 -3 2 -14 -6 -26z"/>
</g>
</svg>
