<?xml version="1.0" standalone="no"?>
<!DOCTYPE svg PUBLIC "-//W3C//DTD SVG 20010904//EN"
 "http://www.w3.org/TR/2001/REC-SVG-20010904/DTD/svg10.dtd">
<svg version="1.0" xmlns="http://www.w3.org/2000/svg"
 width="512.000000pt" height="512.000000pt" viewBox="0 0 512.000000 512.000000"
 preserveAspectRatio="xMidYMid meet">

<g transform="translate(0.000000,512.000000) scale(0.100000,-0.100000)"
fill="#00c7ff" stroke="none">
<path d="M305 4846 c-103 -33 -190 -100 -242 -187 -67 -113 -63 27 -63 -2099
0 -2126 -4 -1986 63 -2099 42 -69 106 -126 187 -165 l65 -31 2245 0 2245 0 67
32 c75 35 150 104 191 173 60 102 57 34 57 1572 l0 1407 -23 26 c-32 38 -92
38 -124 0 l-23 -26 0 -1395 c0 -949 -3 -1409 -11 -1437 -16 -65 -69 -130 -130
-161 l-53 -26 -2196 0 -2196 0 -53 26 c-61 31 -114 96 -130 161 -8 29 -11 639
-11 1946 0 1599 2 1911 14 1950 19 64 67 121 128 151 l52 26 2196 0 2196 0 53
-26 c61 -31 114 -96 130 -161 6 -23 11 -121 11 -217 l0 -176 -2131 -2 -2131
-3 -24 -28 c-31 -37 -31 -81 1 -112 l24 -25 2191 0 2191 0 24 25 25 24 0 248
c0 278 -8 329 -63 422 -42 69 -106 126 -187 165 l-65 31 -2230 2 c-1782 1
-2238 -1 -2270 -11z"/>
<path d="M669 4451 c-31 -31 -36 -55 -18 -94 14 -32 49 -47 105 -47 58 0 94
32 94 85 0 55 -35 85 -100 85 -44 0 -56 -5 -81 -29z"/>
<path d="M1204 4456 c-21 -18 -28 -32 -28 -61 0 -54 38 -85 104 -85 66 0 104
31 104 85 0 54 -38 85 -104 85 -37 0 -56 -6 -76 -24z"/>
<path d="M1735 4455 c-17 -16 -25 -35 -25 -60 0 -53 36 -85 94 -85 56 0 91 15
105 47 18 39 13 63 -18 94 -25 24 -37 29 -81 29 -41 0 -56 -5 -75 -25z"/>
<path d="M1296 2978 c-20 -17 -70 -130 -202 -453 -96 -236 -178 -441 -181
-455 -3 -19 3 -35 22 -58 l27 -32 286 -2 287 -3 5 -108 c5 -99 7 -111 29 -128
34 -27 82 -25 112 7 22 23 24 36 27 130 l4 104 58 0 c70 0 98 19 107 72 5 32
1 41 -25 68 -27 26 -37 30 -86 30 l-56 0 0 385 c0 424 -1 430 -60 455 -35 15
-84 0 -100 -31 -6 -10 -10 -179 -10 -413 l0 -396 -205 0 c-113 0 -205 2 -205
5 0 4 68 172 150 375 83 202 150 377 150 389 0 29 -40 70 -76 77 -23 4 -37 0
-58 -18z"/>
<path d="M2210 2987 c-50 -25 -50 -23 -50 -634 l0 -571 26 -31 26 -31 348 0
348 0 26 31 26 31 -2 584 -3 583 -23 23 c-22 23 -24 23 -360 26 -258 2 -343
-1 -362 -11z m578 -629 l2 -468 -230 0 -230 0 0 463 c0 255 3 467 7 471 4 3
106 5 227 4 l221 -3 3 -467z"/>
<path d="M3633 2988 c-12 -6 -31 -29 -41 -52 -56 -118 -352 -860 -352 -880 0
-13 11 -35 25 -50 l24 -26 285 0 284 0 4 -104 c3 -94 5 -107 27 -130 30 -32
78 -34 114 -6 25 20 26 26 29 128 l3 107 62 5 c92 7 132 53 101 116 -17 38
-52 54 -115 54 l-53 0 0 396 c0 234 -4 403 -10 413 -16 31 -65 46 -101 30 -57
-23 -59 -38 -59 -459 l0 -380 -200 0 c-110 0 -200 4 -200 8 0 5 68 175 150
378 157 384 162 401 121 438 -23 21 -71 28 -98 14z"/>
<path d="M1319 1071 c-31 -31 -36 -59 -17 -94 25 -48 -12 -46 990 -47 l946 0
27 32 c32 38 29 81 -11 116 l-25 22 -940 0 -941 0 -29 -29z"/>
<path d="M3569 1071 c-31 -31 -36 -59 -17 -94 21 -40 40 -46 133 -46 93 0 112
6 133 46 19 35 14 63 -17 94 -28 28 -34 29 -116 29 -82 0 -88 -1 -116 -29z"/>
</g>
</svg>
