<?xml version="1.0" standalone="no"?>
<!DOCTYPE svg PUBLIC "-//W3C//DTD SVG 20010904//EN"
 "http://www.w3.org/TR/2001/REC-SVG-20010904/DTD/svg10.dtd">
<svg version="1.0" xmlns="http://www.w3.org/2000/svg"
 width="283.000000pt" height="226.000000pt" viewBox="0 0 283.000000 226.000000"
 preserveAspectRatio="xMidYMid meet">

<g transform="translate(0.000000,226.000000) scale(0.100000,-0.100000)"
fill="#fff" stroke="none">
<path d="M687 2003 c-4 -3 -7 -388 -7 -855 l0 -848 200 0 200 0 2 587 3 587
249 -449 c137 -248 257 -463 267 -480 18 -29 19 -23 19 352 l0 381 -169 304
c-93 166 -184 330 -203 363 l-34 60 -260 3 c-143 1 -263 -1 -267 -5z"/>
<path d="M1760 1845 l0 -165 195 0 195 0 0 165 0 165 -195 0 -195 0 0 -165z"/>
<path d="M1760 905 l0 -605 195 0 195 0 0 605 0 605 -195 0 -195 0 0 -605z"/>
</g>
</svg>
