<?xml version="1.0" standalone="no"?>
<!DOCTYPE svg PUBLIC "-//W3C//DTD SVG 20010904//EN"
 "http://www.w3.org/TR/2001/REC-SVG-20010904/DTD/svg10.dtd">
<svg version="1.0" xmlns="http://www.w3.org/2000/svg"
 width="800.000000pt" height="800.000000pt" viewBox="0 0 800.000000 800.000000"
 preserveAspectRatio="xMidYMid meet">

<g transform="translate(0.000000,800.000000) scale(0.100000,-0.100000)"
fill="#00c7ff" stroke="none">
<path d="M3410 6430 c-208 -18 -455 -72 -640 -140 -138 -50 -376 -172 -505
-258 -330 -220 -608 -523 -795 -865 -23 -43 -40 -80 -38 -83 3 -2 37 3 77 12
58 13 75 22 88 43 209 344 444 595 747 792 843 553 1928 498 2721 -138 190
-152 403 -396 521 -597 l49 -83 74 -16 c41 -9 76 -15 78 -13 7 6 -50 113 -109
206 -312 494 -778 855 -1333 1033 -284 91 -642 132 -935 107z"/>
<path d="M3320 6175 c-460 -63 -860 -253 -1211 -575 -49 -45 -89 -85 -89 -90
0 -14 338 -176 465 -223 183 -67 169 -68 195 6 41 115 157 342 230 450 154
227 352 384 548 432 l57 13 -50 0 c-27 0 -93 -6 -145 -13z"/>
<path d="M3761 6176 c220 -57 423 -228 591 -498 61 -98 154 -291 193 -400 20
-57 32 -78 45 -78 22 0 230 68 337 110 123 49 313 142 313 154 0 16 -177 185
-272 259 -347 270 -769 436 -1173 461 l-90 6 56 -14z"/>
<path d="M3468 5990 c-234 -72 -454 -326 -607 -697 -27 -68 -46 -125 -42 -128
5 -2 47 -14 95 -25 76 -17 121 -20 356 -20 l270 0 0 439 c0 242 -3 442 -7 444
-5 3 -33 -3 -65 -13z"/>
<path d="M3680 5563 l0 -444 360 3 c222 2 363 7 369 13 11 11 -50 170 -118
305 -155 307 -364 513 -568 558 l-43 10 0 -445z"/>
<path d="M1886 5357 c-44 -54 -156 -218 -156 -229 0 -4 177 -8 393 -8 l392 1
-113 44 c-125 48 -328 144 -421 199 l-60 35 -35 -42z"/>
<path d="M5185 5270 c-77 -39 -187 -88 -245 -110 l-105 -39 328 -1 c180 0 327
4 327 8 0 18 -137 207 -151 209 -8 1 -77 -29 -154 -67z"/>
<path d="M1619 4980 c-433 -51 -790 -393 -859 -823 -19 -115 -8 -309 23 -419
111 -393 435 -667 847 -718 97 -12 3855 -14 3906 -2 l31 7 -14 63 -14 62
-1942 0 c-2100 1 -2015 -1 -2162 54 -143 55 -300 173 -390 295 -50 69 -113
202 -137 289 -25 92 -29 292 -9 387 33 153 113 298 230 418 111 115 225 182
388 229 l78 23 2015 0 c1894 0 2019 -1 2079 -18 170 -47 266 -103 392 -227
131 -130 204 -262 240 -435 18 -83 15 -264 -5 -354 -21 -96 -89 -238 -153
-323 l-51 -66 61 -33 60 -32 24 29 c89 108 171 286 199 432 46 238 -12 520
-147 722 -168 251 -416 403 -719 440 -100 12 -3867 12 -3971 0z"/>
<path d="M1594 4445 c6 -16 239 -794 260 -868 l10 -38 115 3 115 3 71 235 c39
129 74 242 77 250 5 15 25 -46 111 -335 l44 -150 116 -3 116 -3 9 33 c5 18 64
218 131 443 68 226 125 418 127 428 5 15 -5 17 -108 17 l-114 0 -79 -281 c-52
-183 -82 -274 -87 -262 -9 25 -29 94 -96 333 l-58 205 -106 3 -107 3 -25 -83
c-14 -46 -48 -166 -77 -268 -28 -102 -54 -189 -59 -193 -4 -4 -40 108 -79 250
-40 142 -75 266 -77 276 -5 15 -19 17 -121 17 -100 0 -114 -2 -109 -15z"/>
<path d="M2960 4450 c0 -10 78 -277 170 -580 16 -52 44 -147 62 -210 l34 -115
116 -3 115 -3 74 251 c41 137 76 250 79 250 3 0 14 -30 24 -67 11 -38 43 -149
73 -247 29 -99 53 -181 53 -183 0 -2 53 -2 117 -1 114 3 116 3 124 28 47 156
250 842 255 863 l6 28 -112 -3 -113 -3 -19 -65 c-62 -216 -111 -390 -119 -424
-6 -22 -13 -45 -17 -53 -5 -8 -40 102 -87 267 l-79 280 -108 0 c-59 0 -108 -2
-108 -5 0 -6 -114 -410 -135 -479 -8 -26 -15 -55 -15 -64 0 -40 -20 19 -91
271 l-76 272 -112 3 c-75 2 -111 -1 -111 -8z"/>
<path d="M4320 4453 c0 -6 88 -301 211 -713 28 -91 52 -173 55 -182 5 -16 19
-18 119 -18 l114 0 26 88 c15 48 35 114 45 147 10 33 30 103 45 155 15 52 30
98 34 103 4 4 41 -105 81 -243 l74 -250 116 0 115 0 136 458 137 457 -111 3
c-73 2 -113 -1 -117 -8 -4 -6 -40 -130 -81 -276 -40 -145 -76 -264 -79 -264
-4 0 -76 245 -152 518 l-9 33 -107 -3 -107 -3 -73 -260 c-40 -143 -77 -269
-81 -279 -5 -14 -31 64 -87 262 l-79 282 -112 0 c-62 0 -113 -3 -113 -7z"/>
<path d="M5606 3448 c14 -57 40 -170 59 -253 19 -82 73 -319 120 -525 48 -206
115 -503 151 -660 35 -157 66 -289 67 -294 2 -5 77 98 167 228 l165 238 25
-29 c14 -16 99 -127 189 -247 149 -198 165 -216 181 -204 11 7 90 67 176 133
87 66 162 123 167 126 5 4 -75 118 -178 254 -103 135 -185 248 -182 251 3 4
245 89 461 163 l80 27 -65 36 c-35 19 -280 151 -544 293 -264 142 -604 324
-755 406 -151 81 -282 151 -292 154 -14 6 -13 -6 8 -97z"/>
<path d="M1430 2915 c0 -12 55 -113 102 -190 110 -177 245 -342 402 -493 369
-351 814 -565 1351 -648 149 -23 476 -23 640 -1 697 97 1284 456 1693 1037
l33 46 -19 77 c-10 43 -21 79 -24 80 -3 1 -33 -38 -65 -88 -327 -497 -852
-862 -1423 -988 -192 -42 -290 -52 -525 -51 -298 0 -476 30 -751 125 -231 79
-496 228 -699 392 -106 86 -283 270 -372 387 -63 83 -176 254 -185 280 -2 5
-37 16 -78 24 -86 18 -80 18 -80 11z"/>
<path d="M1730 2872 c0 -11 112 -175 157 -230 l35 -42 41 25 c104 64 296 155
467 221 l85 33 -392 1 c-216 0 -393 -4 -393 -8z"/>
<path d="M2901 2859 c-46 -10 -85 -20 -87 -22 -2 -2 7 -30 19 -63 134 -338
298 -571 491 -695 65 -43 154 -79 191 -79 l25 0 0 440 0 440 -277 -1 c-234 -1
-291 -4 -362 -20z"/>
<path d="M3680 2437 l0 -445 43 9 c158 34 334 181 473 394 96 148 233 449 213
470 -6 6 -147 11 -369 13 l-360 3 0 -444z"/>
<path d="M4850 2873 c112 -40 264 -104 365 -153 69 -34 129 -59 134 -56 11 7
129 179 137 200 6 14 -27 16 -322 15 -181 0 -322 -3 -314 -6z"/>
<path d="M4531 2688 c-54 -139 -154 -335 -223 -436 -73 -107 -257 -290 -338
-337 -76 -44 -145 -73 -215 -91 -47 -12 -48 -12 -15 -13 20 -1 74 4 120 9 340
41 686 168 964 354 159 106 416 331 416 364 0 11 -231 122 -347 166 -111 42
-281 96 -303 96 -11 0 -29 -34 -59 -112z"/>
<path d="M2550 2736 c-178 -62 -530 -226 -530 -248 0 -11 189 -179 270 -240
312 -234 691 -385 1075 -428 128 -14 164 -12 90 6 -141 34 -323 155 -438 290
-123 145 -253 370 -327 567 -18 48 -35 87 -39 86 -3 0 -49 -15 -101 -33z"/>
</g>
</svg>
